<svg xmlns="http://www.w3.org/2000/svg" viewBox="0 0 1200 400" font-family="'Segoe UI', Helvetica, Arial, sans-serif">
  <defs>
    <radialGradient id="gc" cx="18%" cy="0%" r="75%">
      <stop offset="0%" stop-color="#00d4ff" stop-opacity="0.16"/>
      <stop offset="100%" stop-color="#00d4ff" stop-opacity="0"/>
    </radialGradient>
    <radialGradient id="gm" cx="88%" cy="105%" r="80%">
      <stop offset="0%" stop-color="#ff2fb6" stop-opacity="0.15"/>
      <stop offset="100%" stop-color="#ff2fb6" stop-opacity="0"/>
    </radialGradient>
    <linearGradient id="line" x1="0" y1="0" x2="1" y2="0">
      <stop offset="0%" stop-color="#00d4ff"/>
      <stop offset="100%" stop-color="#ff2fb6"/>
    </linearGradient>
  </defs>
  <style>
    .d { opacity:.25; animation: pulse 6.47s ease-in-out infinite; }
    @keyframes pulse { 0%,100% { opacity:.25 } 50% { opacity:.95 } }
    .spiral { animation: spin 240s linear infinite; transform-origin: 905px 200px; }
    @keyframes spin { to { transform: rotate(360deg) } }
    .rise { animation: rise 1.8s ease-out both; }
    @keyframes rise { from { opacity:0; transform: translateY(14px) } to { opacity:1; transform: translateY(0) } }
    .k  { fill:#00d4ff; font-size:13px; letter-spacing:7px; font-weight:400; }
    .n  { fill:#f5f7fa; font-size:54px; letter-spacing:20px; font-weight:200; }
    .r  { fill:#9aa3b2; font-size:15px; letter-spacing:5px; font-weight:300; }
    .phi{ fill:#5c6470; font-size:12px; letter-spacing:3px; font-weight:300; }
  </style>
  <rect width="1200" height="400" fill="#05060a"/>
  <rect width="1200" height="400" fill="url(#gc)"/>
  <rect width="1200" height="400" fill="url(#gm)"/>
  <g class="spiral">
        <circle class="d" cx="905.0" cy="200.0" r="1.10" fill="#00d4ff" style="animation-delay:0.00s"/>
    <circle class="d" cx="898.2" cy="206.2" r="1.12" fill="#01d3fe" style="animation-delay:0.55s"/>
    <circle class="d" cx="906.1" cy="187.0" r="1.13" fill="#02d2fe" style="animation-delay:1.10s"/>
    <circle class="d" cx="914.7" cy="212.6" r="1.15" fill="#03d1fe" style="animation-delay:1.65s"/>
    <circle class="d" cx="886.9" cy="196.8" r="1.16" fill="#04d0fd" style="animation-delay:2.20s"/>
    <circle class="d" cx="922.4" cy="189.0" r="1.18" fill="#05d0fd" style="animation-delay:2.75s"/>
    <circle class="d" cx="899.1" cy="221.8" r="1.20" fill="#06cffd" style="animation-delay:3.30s"/>
    <circle class="d" cx="893.8" cy="178.4" r="1.21" fill="#08cefc" style="animation-delay:3.85s"/>
    <circle class="d" cx="929.4" cy="208.9" r="1.23" fill="#09cdfc" style="animation-delay:4.40s"/>
    <circle class="d" cx="879.5" cy="210.5" r="1.24" fill="#0acdfc" style="animation-delay:4.95s"/>
    <circle class="d" cx="917.3" cy="173.6" r="1.26" fill="#0bccfb" style="animation-delay:5.50s"/>
    <circle class="d" cx="914.1" cy="229.1" r="1.28" fill="#0ccbfb" style="animation-delay:6.05s"/>
    <circle class="d" cx="877.4" cy="184.0" r="1.29" fill="#0dcafb" style="animation-delay:6.60s"/>
    <circle class="d" cx="937.4" cy="192.9" r="1.31" fill="#0fcafa" style="animation-delay:0.00s"/>
    <circle class="d" cx="885.2" cy="228.2" r="1.32" fill="#10c9fa" style="animation-delay:0.55s"/>
    <circle class="d" cx="900.4" cy="164.7" r="1.34" fill="#11c8fa" style="animation-delay:1.10s"/>
    <circle class="d" cx="933.1" cy="223.7" r="1.36" fill="#12c7f9" style="animation-delay:1.65s"/>
    <circle class="d" cx="867.1" cy="201.6" r="1.37" fill="#13c7f9" style="animation-delay:2.20s"/>
    <circle class="d" cx="932.7" cy="172.5" r="1.39" fill="#14c6f9" style="animation-delay:2.75s"/>
    <circle class="d" cx="903.1" cy="240.1" r="1.40" fill="#16c5f8" style="animation-delay:3.30s"/>
    <circle class="d" cx="878.6" cy="168.4" r="1.42" fill="#17c4f8" style="animation-delay:3.85s"/>
    <circle class="d" cx="946.8" cy="205.6" r="1.44" fill="#18c4f8" style="animation-delay:4.40s"/>
    <circle class="d" cx="869.6" cy="224.6" r="1.45" fill="#19c3f7" style="animation-delay:4.95s"/>
    <circle class="d" cx="914.7" cy="157.0" r="1.47" fill="#1ac2f7" style="animation-delay:5.50s"/>
    <circle class="d" cx="927.4" cy="239.1" r="1.48" fill="#1bc1f7" style="animation-delay:6.05s"/>
    <circle class="d" cx="861.2" cy="186.0" r="1.50" fill="#1dc1f6" style="animation-delay:6.60s"/>
    <circle class="d" cx="947.6" cy="180.3" r="1.52" fill="#1ec0f6" style="animation-delay:0.00s"/>
    <circle class="d" cx="886.5" cy="244.1" r="1.53" fill="#1fbff6" style="animation-delay:0.55s"/>
    <circle class="d" cx="888.5" cy="154.2" r="1.55" fill="#20bef5" style="animation-delay:1.10s"/>
    <circle class="d" cx="948.9" cy="223.0" r="1.56" fill="#21bef5" style="animation-delay:1.65s"/>
    <circle class="d" cx="856.3" cy="212.8" r="1.58" fill="#22bdf5" style="animation-delay:2.20s"/>
    <circle class="d" cx="932.7" cy="156.9" r="1.60" fill="#24bcf4" style="animation-delay:2.75s"/>
    <circle class="d" cx="913.8" cy="251.3" r="1.61" fill="#25bbf4" style="animation-delay:3.30s"/>
    <circle class="d" cx="863.2" cy="167.6" r="1.63" fill="#26bbf4" style="animation-delay:3.85s"/>
    <circle class="d" cx="958.5" cy="195.6" r="1.64" fill="#27baf3" style="animation-delay:4.40s"/>
    <circle class="d" cx="868.0" cy="240.0" r="1.66" fill="#28b9f3" style="animation-delay:4.95s"/>
    <circle class="d" cx="905.3" cy="144.8" r="1.68" fill="#29b8f3" style="animation-delay:5.50s"/>
    <circle class="d" cx="942.6" cy="241.4" r="1.69" fill="#2bb8f2" style="animation-delay:6.05s"/>
    <circle class="d" cx="848.5" cy="194.8" r="1.71" fill="#2cb7f2" style="animation-delay:6.60s"/>
    <circle class="d" cx="950.8" cy="165.3" r="1.72" fill="#2db6f2" style="animation-delay:0.00s"/>
    <circle class="d" cx="894.6" cy="257.2" r="1.74" fill="#2eb5f1" style="animation-delay:0.55s"/>
    <circle class="d" cx="873.6" cy="150.1" r="1.76" fill="#2fb5f1" style="animation-delay:1.10s"/>
    <circle class="d" cx="962.5" cy="215.8" r="1.77" fill="#30b4f1" style="animation-delay:1.65s"/>
    <circle class="d" cx="851.3" cy="227.5" r="1.79" fill="#32b3f0" style="animation-delay:2.20s"/>
    <circle class="d" cx="926.2" cy="142.8" r="1.80" fill="#33b2f0" style="animation-delay:2.75s"/>
    <circle class="d" cx="928.3" cy="257.2" r="1.82" fill="#34b2f0" style="animation-delay:3.30s"/>
    <circle class="d" cx="848.6" cy="173.3" r="1.84" fill="#35b1ef" style="animation-delay:3.85s"/>
    <circle class="d" cx="965.3" cy="181.4" r="1.85" fill="#36b0ef" style="animation-delay:4.40s"/>
    <circle class="d" cx="872.8" cy="255.0" r="1.87" fill="#37afef" style="animation-delay:4.95s"/>
    <circle class="d" cx="891.5" cy="137.0" r="1.88" fill="#39afee" style="animation-delay:5.50s"/>
    <circle class="d" cx="958.0" cy="237.7" r="1.90" fill="#3aaeee" style="animation-delay:6.05s"/>
    <circle class="d" cx="839.8" cy="208.1" r="1.92" fill="#3badee" style="animation-delay:6.60s"/>
    <circle class="d" cx="948.0" cy="149.5" r="1.93" fill="#3caced" style="animation-delay:0.00s"/>
    <circle class="d" cx="907.4" cy="266.9" r="1.95" fill="#3daced" style="animation-delay:0.55s"/>
    <circle class="d" cx="857.5" cy="151.8" r="1.96" fill="#3eabed" style="animation-delay:1.10s"/>
    <circle class="d" cx="973.1" cy="203.5" r="1.98" fill="#40aaec" style="animation-delay:1.65s"/>
    <circle class="d" cx="851.9" cy="243.9" r="2.00" fill="#41a9ec" style="animation-delay:2.20s"/>
    <circle class="d" cx="914.6" cy="131.2" r="2.01" fill="#42a9ec" style="animation-delay:2.75s"/>
    <circle class="d" cx="944.7" cy="257.7" r="2.03" fill="#43a8eb" style="animation-delay:3.30s"/>
    <circle class="d" cx="836.1" cy="184.2" r="2.04" fill="#44a7eb" style="animation-delay:3.85s"/>
    <circle class="d" cx="967.0" cy="164.9" r="2.06" fill="#45a6eb" style="animation-delay:4.40s"/>
    <circle class="d" cx="882.8" cy="268.3" r="2.08" fill="#47a6ea" style="animation-delay:4.95s"/>
    <circle class="d" cx="874.9" cy="134.1" r="2.09" fill="#48a5ea" style="animation-delay:5.50s"/>
    <circle class="d" cx="972.2" cy="228.5" r="2.11" fill="#49a4ea" style="animation-delay:6.05s"/>
    <circle class="d" cx="835.6" cy="224.6" r="2.12" fill="#4aa3e9" style="animation-delay:6.60s"/>
    <circle class="d" cx="939.8" cy="134.5" r="2.14" fill="#4ba3e9" style="animation-delay:0.00s"/>
    <circle class="d" cx="923.7" cy="272.4" r="2.16" fill="#4ca2e9" style="animation-delay:0.55s"/>
    <circle class="d" cx="841.9" cy="159.0" r="2.17" fill="#4ea1e8" style="animation-delay:1.10s"/>
    <circle class="d" cx="979.8" cy="187.5" r="2.19" fill="#4fa0e8" style="animation-delay:1.65s"/>
    <circle class="d" cx="857.9" cy="260.2" r="2.20" fill="#50a0e8" style="animation-delay:2.20s"/>
    <circle class="d" cx="899.0" cy="123.3" r="2.22" fill="#519fe7" style="animation-delay:2.75s"/>
    <circle class="d" cx="961.6" cy="252.9" r="2.24" fill="#529ee7" style="animation-delay:3.30s"/>
    <circle class="d" cx="826.9" cy="199.2" r="2.25" fill="#539de7" style="animation-delay:3.85s"/>
    <circle class="d" cx="963.5" cy="147.5" r="2.27" fill="#559de6" style="animation-delay:4.40s"/>
    <circle class="d" cx="897.3" cy="278.8" r="2.28" fill="#569ce6" style="animation-delay:4.95s"/>
    <circle class="d" cx="857.1" cy="136.3" r="2.30" fill="#579be6" style="animation-delay:5.50s"/>
    <circle class="d" cx="983.8" cy="214.7" r="2.32" fill="#589ae5" style="animation-delay:6.05s"/>
    <circle class="d" cx="836.5" cy="242.7" r="2.33" fill="#5999e5" style="animation-delay:6.60s"/>
    <circle class="d" cx="926.9" cy="121.7" r="2.35" fill="#5a99e5" style="animation-delay:0.00s"/>
    <circle class="d" cx="942.0" cy="272.9" r="2.36" fill="#5b98e4" style="animation-delay:0.55s"/>
    <circle class="d" cx="828.0" cy="171.0" r="2.38" fill="#5d97e4" style="animation-delay:1.10s"/>
    <circle class="d" cx="981.8" cy="169.2" r="2.40" fill="#5e96e4" style="animation-delay:1.65s"/>
    <circle class="d" cx="869.0" cy="275.1" r="2.41" fill="#5f96e3" style="animation-delay:2.20s"/>
    <circle class="d" cx="880.7" cy="119.8" r="2.43" fill="#6095e3" style="animation-delay:2.75s"/>
    <circle class="d" cx="977.5" cy="243.0" r="2.44" fill="#6194e3" style="animation-delay:3.30s"/>
    <circle class="d" cx="822.0" cy="217.4" r="2.46" fill="#6293e2" style="animation-delay:3.85s"/>
    <circle class="d" cx="954.7" cy="130.7" r="2.48" fill="#6493e2" style="animation-delay:4.40s"/>
    <circle class="d" cx="915.2" cy="285.2" r="2.49" fill="#6592e2" style="animation-delay:4.95s"/>
    <circle class="d" cx="839.6" cy="143.7" r="2.51" fill="#6691e1" style="animation-delay:5.50s"/>
    <circle class="d" cx="991.7" cy="197.3" r="2.52" fill="#6790e1" style="animation-delay:6.05s"/>
    <circle class="d" cx="842.5" cy="261.0" r="2.54" fill="#6890e1" style="animation-delay:6.60s"/>
    <circle class="d" cx="909.9" cy="112.4" r="2.56" fill="#698fe0" style="animation-delay:0.00s"/>
    <circle class="d" cx="960.9" cy="268.3" r="2.57" fill="#6b8ee0" style="animation-delay:0.55s"/>
    <circle class="d" cx="817.2" cy="187.3" r="2.59" fill="#6c8de0" style="animation-delay:1.10s"/>
    <circle class="d" cx="978.7" cy="149.8" r="2.60" fill="#6d8ddf" style="animation-delay:1.65s"/>
    <circle class="d" cx="884.5" cy="287.3" r="2.62" fill="#6e8cdf" style="animation-delay:2.20s"/>
    <circle class="d" cx="860.9" cy="121.4" r="2.64" fill="#6f8bdf" style="animation-delay:2.75s"/>
    <circle class="d" cx="991.1" cy="228.4" r="2.65" fill="#708ade" style="animation-delay:3.30s"/>
    <circle class="d" cx="822.0" cy="237.4" r="2.67" fill="#728ade" style="animation-delay:3.85s"/>
    <circle class="d" cx="941.2" cy="115.9" r="2.68" fill="#7389de" style="animation-delay:4.40s"/>
    <circle class="d" cx="935.3" cy="286.9" r="2.70" fill="#7488dd" style="animation-delay:4.95s"/>
    <circle class="d" cx="823.6" cy="156.2" r="2.72" fill="#7587dd" style="animation-delay:5.50s"/>
    <circle class="d" cx="995.1" cy="177.2" r="2.73" fill="#7687dd" style="animation-delay:6.05s"/>
    <circle class="d" cx="853.7" cy="278.0" r="2.75" fill="#7786dc" style="animation-delay:6.60s"/>
    <circle class="d" cx="890.0" cy="107.4" r="2.76" fill="#7985dc" style="animation-delay:0.00s"/>
    <circle class="d" cx="979.0" cy="258.4" r="2.78" fill="#7a84dc" style="animation-delay:0.55s"/>
    <circle class="d" cx="810.5" cy="206.9" r="2.80" fill="#7b84db" style="animation-delay:1.10s"/>
    <circle class="d" cx="970.3" cy="130.8" r="2.81" fill="#7c83db" style="animation-delay:1.65s"/>
    <circle class="d" cx="903.6" cy="295.6" r="2.83" fill="#7d82db" style="animation-delay:2.20s"/>
    <circle class="d" cx="841.2" cy="128.2" r="2.84" fill="#7e81da" style="animation-delay:2.75s"/>
    <circle class="d" cx="1001.0" cy="209.8" r="2.86" fill="#8081da" style="animation-delay:3.30s"/>
    <circle class="d" cx="827.2" cy="257.8" r="2.88" fill="#8180da" style="animation-delay:3.85s"/>
    <circle class="d" cx="923.4" cy="104.4" r="2.89" fill="#827fd9" style="animation-delay:4.40s"/>
    <circle class="d" cx="956.3" cy="283.3" r="2.91" fill="#837ed9" style="animation-delay:4.95s"/>
    <circle class="d" cx="810.5" cy="173.1" r="2.92" fill="#847ed9" style="animation-delay:5.50s"/>
    <circle class="d" cx="993.2" cy="155.8" r="2.94" fill="#857dd8" style="animation-delay:6.05s"/>
    <circle class="d" cx="869.7" cy="292.6" r="2.96" fill="#877cd8" style="animation-delay:6.60s"/>
    <circle class="d" cx="868.4" cy="107.5" r="2.97" fill="#887bd8" style="animation-delay:0.00s"/>
    <circle class="d" cx="994.9" cy="243.7" r="2.99" fill="#897bd7" style="animation-delay:0.55s"/>
    <circle class="d" cx="808.8" cy="228.6" r="3.00" fill="#8a7ad7" style="animation-delay:1.10s"/>
    <circle class="d" cx="956.8" cy="113.6" r="3.02" fill="#8b79d7" style="animation-delay:1.65s"/>
    <circle class="d" cx="925.3" cy="299.1" r="3.04" fill="#8c78d6" style="animation-delay:2.20s"/>
    <circle class="d" cx="822.7" cy="140.3" r="3.05" fill="#8e78d6" style="animation-delay:2.75s"/>
    <circle class="d" cx="1006.4" cy="188.4" r="3.07" fill="#8f77d6" style="animation-delay:3.30s"/>
    <circle class="d" cx="837.8" cy="277.4" r="3.08" fill="#9076d5" style="animation-delay:3.85s"/>
    <circle class="d" cx="902.3" cy="97.2" r="3.10" fill="#9175d5" style="animation-delay:4.40s"/>
    <circle class="d" cx="976.8" cy="274.3" r="3.12" fill="#9275d5" style="animation-delay:4.95s"/>
    <circle class="d" cx="801.5" cy="193.7" r="3.13" fill="#9374d4" style="animation-delay:5.50s"/>
    <circle class="d" cx="985.9" cy="134.5" r="3.15" fill="#9573d4" style="animation-delay:6.05s"/>
    <circle class="d" cx="889.6" cy="303.3" r="3.16" fill="#9672d4" style="animation-delay:6.60s"/>
    <circle class="d" cx="846.4" cy="113.0" r="3.18" fill="#9772d3" style="animation-delay:0.00s"/>
    <circle class="d" cx="1007.4" cy="224.6" r="3.20" fill="#9871d3" style="animation-delay:0.55s"/>
    <circle class="d" cx="812.5" cy="251.2" r="3.21" fill="#9970d3" style="animation-delay:1.10s"/>
    <circle class="d" cx="938.7" cy="99.4" r="3.23" fill="#9a6fd2" style="animation-delay:1.65s"/>
    <circle class="d" cx="948.2" cy="297.3" r="3.24" fill="#9c6fd2" style="animation-delay:2.20s"/>
    <circle class="d" cx="807.0" cy="157.3" r="3.26" fill="#9d6ed2" style="animation-delay:2.75s"/>
    <circle class="d" cx="1006.5" cy="165.2" r="3.28" fill="#9e6dd1" style="animation-delay:3.30s"/>
    <circle class="d" cx="853.5" cy="294.6" r="3.29" fill="#9f6cd1" style="animation-delay:3.85s"/>
    <circle class="d" cx="879.0" cy="95.1" r="3.31" fill="#a06cd1" style="animation-delay:4.40s"/>
    <circle class="d" cx="995.4" cy="260.0" r="3.32" fill="#a16bd0" style="animation-delay:4.95s"/>
    <circle class="d" cx="797.5" cy="216.9" r="3.34" fill="#a36ad0" style="animation-delay:5.50s"/>
    <circle class="d" cx="973.1" cy="114.6" r="3.36" fill="#a469d0" style="animation-delay:6.05s"/>
    <circle class="d" cx="912.5" cy="309.4" r="3.37" fill="#a569cf" style="animation-delay:6.60s"/>
    <circle class="d" cx="825.3" cy="124.1" r="3.39" fill="#a668cf" style="animation-delay:0.00s"/>
    <circle class="d" cx="1015.4" cy="202.2" r="3.40" fill="#a767cf" style="animation-delay:0.55s"/>
    <circle class="d" cx="821.9" cy="273.2" r="3.42" fill="#a866ce" style="animation-delay:1.10s"/>
    <circle class="d" cx="916.9" cy="89.5" r="3.44" fill="#aa66ce" style="animation-delay:1.65s"/>
    <circle class="d" cx="971.1" cy="289.8" r="3.45" fill="#ab65ce" style="animation-delay:2.20s"/>
    <circle class="d" cx="795.2" cy="178.4" r="3.47" fill="#ac64cd" style="animation-delay:2.75s"/>
    <circle class="d" cx="1000.9" cy="141.6" r="3.48" fill="#ad63cd" style="animation-delay:3.30s"/>
    <circle class="d" cx="873.6" cy="308.2" r="3.50" fill="#ae62cd" style="animation-delay:3.85s"/>
    <circle class="d" cx="854.9" cy="98.7" r="3.52" fill="#af62cc" style="animation-delay:4.40s"/>
    <circle class="d" cx="1010.8" cy="241.0" r="3.53" fill="#b061cc" style="animation-delay:4.95s"/>
    <circle class="d" cx="799.0" cy="241.4" r="3.55" fill="#b260cc" style="animation-delay:5.50s"/>
    <circle class="d" cx="955.4" cy="97.6" r="3.56" fill="#b35fcb" style="animation-delay:6.05s"/>
    <circle class="d" cx="937.1" cy="309.9" r="3.58" fill="#b45fcb" style="animation-delay:6.60s"/>
    <circle class="d" cx="806.7" cy="140.5" r="3.60" fill="#b55ecb" style="animation-delay:0.00s"/>
    <circle class="d" cx="1018.0" cy="177.4" r="3.61" fill="#b65dca" style="animation-delay:0.55s"/>
    <circle class="d" cx="836.7" cy="293.3" r="3.63" fill="#b75cca" style="animation-delay:1.10s"/>
    <circle class="d" cx="892.3" cy="84.7" r="3.64" fill="#b95cca" style="animation-delay:1.65s"/>
    <circle class="d" cx="992.5" cy="276.7" r="3.66" fill="#ba5bc9" style="animation-delay:2.20s"/>
    <circle class="d" cx="788.3" cy="202.5" r="3.68" fill="#bb5ac9" style="animation-delay:2.75s"/>
    <circle class="d" cx="989.6" cy="119.0" r="3.69" fill="#bc59c9" style="animation-delay:3.30s"/>
    <circle class="d" cx="897.3" cy="317.2" r="3.71" fill="#bd59c8" style="animation-delay:3.85s"/>
    <circle class="d" cx="831.3" cy="108.1" r="3.72" fill="#be58c8" style="animation-delay:4.40s"/>
    <circle class="d" cx="1021.8" cy="218.0" r="3.74" fill="#c057c8" style="animation-delay:4.95s"/>
    <circle class="d" cx="806.4" cy="265.8" r="3.76" fill="#c156c7" style="animation-delay:5.50s"/>
    <circle class="d" cx="933.4" cy="84.5" r="3.77" fill="#c256c7" style="animation-delay:6.05s"/>
    <circle class="d" cx="962.3" cy="304.6" r="3.79" fill="#c355c7" style="animation-delay:6.60s"/>
    <circle class="d" cx="791.8" cy="161.4" r="3.80" fill="#c454c6" style="animation-delay:0.00s"/>
    <circle class="d" cx="1014.9" cy="151.8" r="3.82" fill="#c553c6" style="animation-delay:0.55s"/>
    <circle class="d" cx="856.4" cy="310.1" r="3.84" fill="#c753c6" style="animation-delay:1.10s"/>
    <circle class="d" cx="866.4" cy="85.7" r="3.85" fill="#c852c5" style="animation-delay:1.65s"/>
    <circle class="d" cx="1011.0" cy="258.4" r="3.87" fill="#c951c5" style="animation-delay:2.20s"/>
    <circle class="d" cx="787.1" cy="228.6" r="3.88" fill="#ca50c5" style="animation-delay:2.75s"/>
    <circle class="d" cx="972.8" cy="98.9" r="3.90" fill="#cb50c4" style="animation-delay:3.30s"/>
    <circle class="d" cx="923.3" cy="320.7" r="3.92" fill="#cc4fc4" style="animation-delay:3.85s"/>
    <circle class="d" cx="809.7" cy="123.2" r="3.93" fill="#ce4ec4" style="animation-delay:4.40s"/>
    <circle class="d" cx="1027.5" cy="192.3" r="3.95" fill="#cf4dc3" style="animation-delay:4.95s"/>
    <circle class="d" cx="819.7" cy="288.7" r="3.96" fill="#d04dc3" style="animation-delay:5.50s"/>
    <circle class="d" cx="908.0" cy="76.6" r="3.98" fill="#d14cc3" style="animation-delay:6.05s"/>
    <circle class="d" cx="986.4" cy="293.3" r="4.00" fill="#d24bc2" style="animation-delay:6.60s"/>
    <circle class="d" cx="781.7" cy="186.1" r="4.01" fill="#d34ac2" style="animation-delay:0.00s"/>
    <circle class="d" cx="1005.6" cy="126.7" r="4.03" fill="#d54ac2" style="animation-delay:0.55s"/>
    <circle class="d" cx="880.3" cy="322.3" r="4.04" fill="#d649c1" style="animation-delay:1.10s"/>
    <circle class="d" cx="840.4" cy="92.8" r="4.06" fill="#d748c1" style="animation-delay:1.65s"/>
    <circle class="d" cx="1025.3" cy="235.5" r="4.08" fill="#d847c1" style="animation-delay:2.20s"/>
    <circle class="d" cx="792.0" cy="255.2" r="4.09" fill="#d947c0" style="animation-delay:2.75s"/>
    <circle class="d" cx="951.1" cy="82.6" r="4.11" fill="#da46c0" style="animation-delay:3.30s"/>
    <circle class="d" cx="950.4" cy="318.1" r="4.12" fill="#dc45c0" style="animation-delay:3.85s"/>
    <circle class="d" cx="791.5" cy="143.5" r="4.14" fill="#dd44bf" style="animation-delay:4.40s"/>
    <circle class="d" cx="1027.2" cy="164.9" r="4.16" fill="#de44bf" style="animation-delay:4.95s"/>
    <circle class="d" cx="838.4" cy="308.7" r="4.17" fill="#df43bf" style="animation-delay:5.50s"/>
    <circle class="d" cx="880.6" cy="74.5" r="4.19" fill="#e042be" style="animation-delay:6.05s"/>
    <circle class="d" cx="1008.0" cy="276.2" r="4.20" fill="#e141be" style="animation-delay:6.60s"/>
    <circle class="d" cx="777.2" cy="213.4" r="4.22" fill="#e341be" style="animation-delay:0.00s"/>
    <circle class="d" cx="990.4" cy="103.6" r="4.24" fill="#e440bd" style="animation-delay:0.55s"/>
    <circle class="d" cx="907.2" cy="329.1" r="4.25" fill="#e53fbd" style="animation-delay:1.10s"/>
    <circle class="d" cx="815.9" cy="106.0" r="4.27" fill="#e63ebd" style="animation-delay:1.65s"/>
    <circle class="d" cx="1034.5" cy="209.2" r="4.28" fill="#e73ebc" style="animation-delay:2.20s"/>
    <circle class="d" cx="803.1" cy="280.9" r="4.30" fill="#e83dbc" style="animation-delay:2.75s"/>
    <circle class="d" cx="925.5" cy="71.2" r="4.32" fill="#ea3cbc" style="animation-delay:3.30s"/>
    <circle class="d" cx="977.0" cy="309.1" r="4.33" fill="#eb3bbb" style="animation-delay:3.85s"/>
    <circle class="d" cx="777.9" cy="168.1" r="4.35" fill="#ec3bbb" style="animation-delay:4.40s"/>
    <circle class="d" cx="1020.6" cy="137.5" r="4.36" fill="#ed3abb" style="animation-delay:4.95s"/>
    <circle class="d" cx="861.9" cy="324.5" r="4.38" fill="#ee39ba" style="animation-delay:5.50s"/>
    <circle class="d" cx="852.6" cy="78.8" r="4.40" fill="#ef38ba" style="animation-delay:6.05s"/>
    <circle class="d" cx="1025.8" cy="254.1" r="4.41" fill="#f138ba" style="animation-delay:6.60s"/>
    <circle class="d" cx="779.1" cy="241.8" r="4.43" fill="#f237b9" style="animation-delay:0.00s"/>
    <circle class="d" cx="969.7" cy="83.8" r="4.44" fill="#f336b9" style="animation-delay:0.55s"/>
    <circle class="d" cx="935.8" cy="329.7" r="4.46" fill="#f435b9" style="animation-delay:1.10s"/>
    <circle class="d" cx="794.4" cy="125.0" r="4.48" fill="#f535b8" style="animation-delay:1.65s"/>
    <circle class="d" cx="1037.5" cy="180.5" r="4.49" fill="#f634b8" style="animation-delay:2.20s"/>
    <circle class="d" cx="820.2" cy="304.1" r="4.51" fill="#f833b8" style="animation-delay:2.75s"/>
    <circle class="d" cx="897.2" cy="65.6" r="4.52" fill="#f932b7" style="animation-delay:3.30s"/>
    <circle class="d" cx="1001.8" cy="294.0" r="4.54" fill="#fa32b7" style="animation-delay:3.85s"/>
    <circle class="d" cx="769.8" cy="196.0" r="4.56" fill="#fb31b7" style="animation-delay:4.40s"/>
    <circle class="d" cx="1007.6" cy="111.4" r="4.57" fill="#fc30b6" style="animation-delay:4.95s"/>
    <circle class="d" cx="889.2" cy="334.9" r="4.59" fill="#fd2fb6" style="animation-delay:5.50s"/>
    <circle class="d" cx="825.4" cy="89.6" r="4.60" fill="#ff2fb6" style="animation-delay:6.05s"/>
  </g>
  <g class="rise">
    <text class="k" x="82" y="128">DÉVELOPPEUR FULLSTACK — MARSEILLE</text>
    <text class="n" x="78" y="196">OUSSAMA</text>
    <text class="n" x="78" y="262">HALIMA-FILALI</text>
    <rect x="82" y="292" width="458" height="2" fill="url(#line)" rx="1"/>
    <text class="r" x="82" y="330">WEB &#183; MOBILE &#183; 3D TEMPS RÉEL &#183; AGENTS IA</text>
  </g>
  <text class="phi" x="1022" y="376">&#966; = 1.618 &#183; 137.5&#176;</text>
</svg>